# xmcd
#
# Track frame offsets: 
#        150
#        18848
#        36841
#        62926
#        75996
#        90026
#        104780
#        125676
#        144881
#        162397
#        186038
#        209452
#        226017
#
# Disc length: 3156 seconds
#
# Revision: 0
# Processed by: cddbd v1.5.2PL0 Copyright (c) Steve Scherf et al.
# Submitted via: ExactAudioCopyFreeDBPlugin 1.0
#
DISCID=a00c520d
DTITLE=Tom Hambridge - The Nola Sessions
DYEAR=2018
DGENRE=Blues
TTITLE0=Blues Been Mighty Good To Me
TTITLE1=Bluz Crazy
TTITLE2=This End Of The Road
TTITLE3=I Love Everything
TTITLE4=What You Leave Behind
TTITLE5=LIttle Things
TTITLE6=Whiskey Ghost
TTITLE7=Save Me
TTITLE8=A Couple Drops
TTITLE9=Masterpiece
TTITLE10=Me And Charlie
TTITLE11=Trying To Find It
TTITLE12=Faith
EXTD=
EXTT0=
EXTT1=
EXTT2=
EXTT3=
EXTT4=
EXTT5=
EXTT6=
EXTT7=
EXTT8=
EXTT9=
EXTT10=
EXTT11=
EXTT12=
PLAYORDER=
